# xmcd
# 
# Track frame offsets:
#     150
#     29415
#     62503
#     91490
#     114683
#     147155
#     189235
#     206665
# 
# Disc length: 3072
# 
# Revision: 5
# Processed by: cddbd v1.5.2PL0 Copyright (c) Steve Scherf et al.
# Submitted via: fre:ac v1.0.31
# 
DISCID=6d0bfe08
DTITLE=Angel Dance 02 - Angel Dance 02- Khiêu Vũ Tango Rumba ChaChaCha - Người Đẹp Bình Dương Productions
DYEAR=1990
DGENRE=Instrumental
TTITLE0=Angel Dance 02-A - Tango - Vũ Nữ Thân Gầy - Giáng Ngọc
TTITLE1=Angel Dance 02-B - Rumba - Em Đẹp Như Mơ - Thôi - Biết Đến Bao Giờ
TTITLE2=Angel Dance 02-C - Chachacha - Bésame Mucho - Yêu Em Bây Cả Trái Tim
TTITLE3=Angel Dance 02-D - New Wave - You Shot A Hole In My Soul - Xuân Yêu Thương
TTITLE4=Angel Dance 02-E - Slow  - Tình Hờ - Mười Năm Tình Cũ
TTITLE5=Angel Dance 02-F - Rumba - Je Ne Pas Changé - Sầu Lẻ Bóng - Nửa Đêm Ngoài Phố
TTITLE6=Angel Dance 02-G - ChaChaCha - Hãy Yêu Nhiều
TTITLE7=Angel Dance 02-H - Paso - Dừng Bước Giang Hồ - Chuyển Khúc
EXTD=
EXTT0=
EXTT1=
EXTT2=
EXTT3=
EXTT4=
EXTT5=
EXTT6=
EXTT7=
PLAYORDER=
